<svg xmlns="http://www.w3.org/2000/svg" viewBox="0 0 285.16 68.19"><defs><style>.cls-1{fill:#18bfd5;fill-rule:evenodd;}.cls-2{fill:#010101;}</style></defs><g id="Layer_2" data-name="Layer 2"><g id="Layer_1-2" data-name="Layer 1"><path class="cls-1" d="M16.5,4.61A9.72,9.72,0,0,1,24.77,0H49.61a9.73,9.73,0,0,1,8.1,4.32l3.3,5a4.3,4.3,0,0,1,.32.6c2.92,7.15,3.48,14.55,2,19.9S52.89,49.18,39.05,49.18c-17.29,0-19.41-13.88-19.41-17.8S21.76,18.1,33.29,18.1C44.55,18.1,44.52,25,44.51,27v.13c0,1.82-.91,7.25-6.06,7.55-1.8.1-3.24.14-4.35.13a2.61,2.61,0,0,0-2.63,2.49,2,2,0,0,0,1.56,2,31.8,31.8,0,0,0,4.81.53c1.82,0,11.83-1.21,11.83-12.68S39.36,12.67,33.29,12.67,13.88,16.9,13.88,32.28,26,55.82,39.05,55.82,70.89,44.64,70.91,24.14L74,28.76a9.63,9.63,0,0,1,0,10.67L57.71,63.87a9.73,9.73,0,0,1-8.1,4.32H24.77a9.72,9.72,0,0,1-8.27-4.61L1.43,39.14a9.6,9.6,0,0,1,0-10.09Z"/><path class="cls-2" d="M118.18,43.71a1.11,1.11,0,0,1,1.12,1.09v1.94a1.1,1.1,0,0,1-1.12,1.08H101.39a2.2,2.2,0,0,1-2.23-2.17v-22a2.2,2.2,0,0,1,2.23-2.17h16.25a1.1,1.1,0,0,1,1.12,1.08v1.94a1.11,1.11,0,0,1-1.12,1.09H105.26a1.09,1.09,0,0,0-1.11,1.08v4.69a1.1,1.1,0,0,0,1.11,1.09H116a1.1,1.1,0,0,1,1.11,1.09v1.86A1.09,1.09,0,0,1,116,36.43H105.26a1.1,1.1,0,0,0-1.11,1.09v5.11a1.09,1.09,0,0,0,1.11,1.08Z"/><path class="cls-2" d="M147.6,21.43a1.09,1.09,0,0,1,1.11,1.08V46.74a1.09,1.09,0,0,1-1.11,1.08h-2.46a1.11,1.11,0,0,1-.87-.4L131.78,32.34a1.12,1.12,0,0,0-2,.68V46.74a1.09,1.09,0,0,1-1.11,1.08H126a1.1,1.1,0,0,1-1.12-1.08V22.51A1.1,1.1,0,0,1,126,21.43h2.46a1.1,1.1,0,0,1,.86.4l12.49,15.08a1.12,1.12,0,0,0,2-.68V22.51a1.1,1.1,0,0,1,1.12-1.08Z"/><path class="cls-2" d="M174.93,34.1a6.94,6.94,0,0,1,3.52,2.41,6.52,6.52,0,0,1,1.31,4.15A6.13,6.13,0,0,1,177.07,46c-1.79,1.23-4.39,1.84-7.82,1.84H157a1.1,1.1,0,0,1-1.12-1.08V22.51A1.1,1.1,0,0,1,157,21.43h11.46c3.17,0,5.62.61,7.33,1.84a5.81,5.81,0,0,1,2.57,5,6.57,6.57,0,0,1-.92,3.47A6.42,6.42,0,0,1,174.93,34.1ZM162,25.27a1.1,1.1,0,0,0-1.11,1.09v5.1A1.1,1.1,0,0,0,162,32.55H168a7.31,7.31,0,0,0,4-.9,3.07,3.07,0,0,0,1.42-2.72,3,3,0,0,0-1.42-2.72,7.11,7.11,0,0,0-4-.94ZM168.94,44q5.79,0,5.79-3.81t-5.79-3.81H162a1.1,1.1,0,0,0-1.11,1.09v5.44A1.1,1.1,0,0,0,162,44Z"/><path class="cls-2" d="M185.08,22.51a1.09,1.09,0,0,1,1.11-1.08H189a1.1,1.1,0,0,1,1.12,1.08V46.74A1.1,1.1,0,0,1,189,47.82h-2.76a1.09,1.09,0,0,1-1.11-1.08Z"/><path class="cls-2" d="M209.87,48.2a15.71,15.71,0,0,1-7.4-1.73,13.13,13.13,0,0,1-7.06-11.85,13.1,13.1,0,0,1,1.88-6.93,12.93,12.93,0,0,1,5.18-4.87,16.35,16.35,0,0,1,14.8,0,13,13,0,0,1,7.06,11.8,13.2,13.2,0,0,1-1.88,7,13.36,13.36,0,0,1-5.18,4.87A15.74,15.74,0,0,1,209.87,48.2Zm0-4.3a9.92,9.92,0,0,0,4.83-1.17,8.84,8.84,0,0,0,3.38-3.32,9.56,9.56,0,0,0,1.22-4.79,9.36,9.36,0,0,0-1.22-4.75,8.56,8.56,0,0,0-3.38-3.32,10.32,10.32,0,0,0-9.66,0,8.5,8.5,0,0,0-3.38,3.32,9.27,9.27,0,0,0-1.23,4.75,9.46,9.46,0,0,0,1.23,4.79A8.77,8.77,0,0,0,205,42.73,9.92,9.92,0,0,0,209.87,43.9Z"/><path class="cls-2" d="M237.94,48.2a21,21,0,0,1-6-.87,13.59,13.59,0,0,1-3.92-1.8,1,1,0,0,1-.31-1.23l.81-1.79a1.25,1.25,0,0,1,1.77-.48,14.9,14.9,0,0,0,7.68,2.1,8.38,8.38,0,0,0,4.44-.94,2.84,2.84,0,0,0,1.5-2.49,2.32,2.32,0,0,0-.84-1.85A5.61,5.61,0,0,0,241,37.68c-.85-.28-2-.59-3.46-.94a42,42,0,0,1-5-1.44,8.43,8.43,0,0,1-3.26-2.22,6.09,6.09,0,0,1-1.34-4.15,7,7,0,0,1,1.18-4,8.3,8.3,0,0,1,3.65-2.87,15.17,15.17,0,0,1,6-1.05,19.6,19.6,0,0,1,4.83.6,14.16,14.16,0,0,1,3.34,1.28,1,1,0,0,1,.43,1.27L246.59,26a1.2,1.2,0,0,1-1.63.58,14.68,14.68,0,0,0-2.54-1,14.09,14.09,0,0,0-3.72-.53,8,8,0,0,0-4.41,1,3,3,0,0,0-1.42,2.6,2.35,2.35,0,0,0,.81,1.85,6,6,0,0,0,2.11,1.13c.84.28,2,.59,3.45,1a35.07,35.07,0,0,1,4.91,1.43,8.18,8.18,0,0,1,3.26,2.22,5.83,5.83,0,0,1,1.38,4.08,6.8,6.8,0,0,1-1.23,4,8.08,8.08,0,0,1-3.64,2.83A15.2,15.2,0,0,1,237.94,48.2Z"/><path class="cls-2" d="M253.73,22.51a1.1,1.1,0,0,1,1.12-1.08h2.76a1.09,1.09,0,0,1,1.11,1.08V46.74a1.09,1.09,0,0,1-1.11,1.08h-2.76a1.1,1.1,0,0,1-1.12-1.08Z"/><path class="cls-2" d="M274.3,48.2a21,21,0,0,1-6-.87,13.59,13.59,0,0,1-3.92-1.8,1,1,0,0,1-.31-1.23l.81-1.79a1.25,1.25,0,0,1,1.77-.48,15.85,15.85,0,0,0,2.84,1.31,15.65,15.65,0,0,0,4.83.79,8.4,8.4,0,0,0,4.45-.94,2.84,2.84,0,0,0,1.5-2.49,2.32,2.32,0,0,0-.84-1.85,5.57,5.57,0,0,0-2.08-1.17c-.84-.28-2-.59-3.45-.94a41.44,41.44,0,0,1-5-1.44,8.36,8.36,0,0,1-3.26-2.22,6.1,6.1,0,0,1-1.35-4.15,7,7,0,0,1,1.19-4,8.3,8.3,0,0,1,3.65-2.87,15.17,15.17,0,0,1,6-1.05,19.6,19.6,0,0,1,4.83.6,14.16,14.16,0,0,1,3.34,1.28,1,1,0,0,1,.43,1.27L283,26a1.21,1.21,0,0,1-1.63.58,14.68,14.68,0,0,0-2.54-1,14.09,14.09,0,0,0-3.72-.53,8,8,0,0,0-4.41,1,3,3,0,0,0-1.42,2.6,2.35,2.35,0,0,0,.81,1.85,6,6,0,0,0,2.11,1.13c.84.28,2,.59,3.45,1a35.07,35.07,0,0,1,4.91,1.43,8.18,8.18,0,0,1,3.26,2.22,5.83,5.83,0,0,1,1.38,4.08,6.8,6.8,0,0,1-1.23,4,8.13,8.13,0,0,1-3.64,2.83A15.22,15.22,0,0,1,274.3,48.2Z"/></g></g></svg>